<svg width="419" height="383" viewBox="0 0 419 383" fill="none" xmlns="http://www.w3.org/2000/svg">
<path d="M328.27 159.917L169.489 247.417C167.959 248.199 166.238 248.531 164.526 248.374C162.815 248.217 161.183 247.578 159.819 246.531L48.8159 159.052L2.91306 226.193C0.614761 229.581 -0.374969 233.688 0.128004 237.752C0.630976 241.815 2.5924 245.557 5.64738 248.282L153.899 378.232C156.847 380.819 160.516 382.44 164.413 382.879C168.31 383.318 172.248 382.554 175.698 380.688L411.851 252.325C415.014 250.475 417.355 247.492 418.4 243.979C419.445 240.467 419.116 236.688 417.479 233.41C416.743 232.081 415.819 230.865 414.736 229.801L343.285 161.938C341.331 160.033 338.816 158.808 336.112 158.444C333.408 158.08 330.658 158.596 328.27 159.917ZM163.857 362.056V268.93C163.877 267.322 164.331 265.75 165.169 264.378C166.007 263.005 167.2 261.885 168.621 261.133L329.711 172.621C331.154 171.826 332.812 171.509 334.446 171.716C336.081 171.922 337.608 172.641 338.809 173.769L404.202 235.289C405.21 236.278 405.786 237.625 405.804 239.037C405.822 240.449 405.281 241.811 404.299 242.825L404.202 242.923C403.836 243.338 403.396 243.68 402.903 243.933L173.243 367.983C171.709 368.808 169.912 368.997 168.24 368.511C166.567 368.024 165.153 366.9 164.3 365.381C163.836 364.387 163.59 363.305 163.578 362.207L163.857 362.056Z" fill="white"/>
<path d="M306.188 126.564L178.441 4.98721C175.284 1.80892 170.994 0.0150575 166.515 9.43599e-05C162.035 -0.0148687 157.733 1.75029 154.555 4.90742L154.479 4.98721L152.747 7.1549L61.6633 140.567L158.809 217.655C160.326 218.667 162.109 219.208 163.932 219.208C165.756 219.208 167.538 218.667 169.055 217.655L304.743 138.834C305.625 138.314 306.395 137.624 307.011 136.806C307.626 135.988 308.074 135.056 308.329 134.064C308.584 133.072 308.642 132.04 308.498 131.026C308.354 130.012 308.012 129.037 307.49 128.155L306.188 126.564ZM163.857 20.5821C163.742 19.1314 164.207 17.6943 165.152 16.587C166.096 15.4797 167.441 14.7929 168.891 14.6775C169.042 14.6775 169.192 14.6775 169.334 14.6775C170.789 14.6856 172.185 15.2558 173.23 16.2689L288.722 126.129C289.718 127.154 290.275 128.526 290.275 129.955C290.275 131.384 289.718 132.756 288.722 133.78L287.424 134.667L167.903 204.707C167.211 205.075 166.403 205.161 165.649 204.946C164.896 204.731 164.255 204.232 163.861 203.554C163.715 203.083 163.715 202.58 163.861 202.109L163.857 20.5821Z" fill="white"/>
</svg>
